<svg width="85" height="365" viewBox="0 0 85 365" fill="none" xmlns="http://www.w3.org/2000/svg">
<path fill-rule="evenodd" clip-rule="evenodd" d="M85 0H52L50 3L52 305L83 308L85 305V0ZM68.5 11C64.3579 11 61 14.3579 61 18.5V56.5C61 60.6421 64.3579 64 68.5 64C72.6421 64 76 60.6421 76 56.5V18.5C76 14.3579 72.6421 11 68.5 11ZM68.5 69C64.3579 69 61 72.3579 61 76.5V114.5C61 118.642 64.3579 122 68.5 122C72.6421 122 76 118.642 76 114.5V76.5C76 72.3579 72.6421 69 68.5 69ZM61 134.5C61 130.358 64.3579 127 68.5 127C72.6421 127 76 130.358 76 134.5V172.5C76 176.642 72.6421 180 68.5 180C64.3579 180 61 176.642 61 172.5V134.5ZM68.5 185C64.3579 185 61 188.358 61 192.5V230.5C61 234.642 64.3579 238 68.5 238C72.6421 238 76 234.642 76 230.5V192.5C76 188.358 72.6421 185 68.5 185ZM61 250.5C61 246.358 64.3579 243 68.5 243C72.6421 243 76 246.358 76 250.5V288.5C76 292.642 72.6421 296 68.5 296C64.3579 296 61 292.642 61 288.5V250.5Z" fill="#B5B4B4"/>
<path fill-rule="evenodd" clip-rule="evenodd" d="M83 3H50V308H83V3ZM66.5 14C62.3579 14 59 17.3579 59 21.5V59.5C59 63.6421 62.3579 67 66.5 67C70.6421 67 74 63.6421 74 59.5V21.5C74 17.3579 70.6421 14 66.5 14ZM66.5 72C62.3579 72 59 75.3579 59 79.5V117.5C59 121.642 62.3579 125 66.5 125C70.6421 125 74 121.642 74 117.5V79.5C74 75.3579 70.6421 72 66.5 72ZM59 137.5C59 133.358 62.3579 130 66.5 130C70.6421 130 74 133.358 74 137.5V175.5C74 179.642 70.6421 183 66.5 183C62.3579 183 59 179.642 59 175.5V137.5ZM66.5 188C62.3579 188 59 191.358 59 195.5V233.5C59 237.642 62.3579 241 66.5 241C70.6421 241 74 237.642 74 233.5V195.5C74 191.358 70.6421 188 66.5 188ZM59 253.5C59 249.358 62.3579 246 66.5 246C70.6421 246 74 249.358 74 253.5V291.5C74 295.642 70.6421 299 66.5 299C62.3579 299 59 295.642 59 291.5V253.5Z" fill="#D9D9D9"/>
<line x1="59.5043" y1="177.935" x2="82.5043" y2="2.93485" stroke="#797979"/>
<line x1="27.5043" y1="177.935" x2="50.5043" y2="2.93485" stroke="#797979"/>
<path d="M4 54H36.5L83 296V307.5H50L2 57L4 54Z" fill="#8C8C8C"/>
<path d="M35 57L83 308H50L2 57H35Z" fill="#CFCFCF"/>
<path d="M9.5 59H29L77.5 307.5H55L9.5 59Z" fill="#AEAEAE"/>
<line x1="33.5043" y1="359.935" x2="56.5043" y2="184.935" stroke="#797979"/>
<line x1="4.50426" y1="359.935" x2="27.5043" y2="184.935" stroke="#797979"/>
<path fill-rule="evenodd" clip-rule="evenodd" d="M35 57H2L0 60L2 362L33 365L35 362V57ZM18.5 68C14.3579 68 11 71.3579 11 75.5V113.5C11 117.642 14.3579 121 18.5 121C22.6421 121 26 117.642 26 113.5V75.5C26 71.3579 22.6421 68 18.5 68ZM18.5 126C14.3579 126 11 129.358 11 133.5V171.5C11 175.642 14.3579 179 18.5 179C22.6421 179 26 175.642 26 171.5V133.5C26 129.358 22.6421 126 18.5 126ZM11 191.5C11 187.358 14.3579 184 18.5 184C22.6421 184 26 187.358 26 191.5V229.5C26 233.642 22.6421 237 18.5 237C14.3579 237 11 233.642 11 229.5V191.5ZM18.5 242C14.3579 242 11 245.358 11 249.5V287.5C11 291.642 14.3579 295 18.5 295C22.6421 295 26 291.642 26 287.5V249.5C26 245.358 22.6421 242 18.5 242ZM11 307.5C11 303.358 14.3579 300 18.5 300C22.6421 300 26 303.358 26 307.5V345.5C26 349.642 22.6421 353 18.5 353C14.3579 353 11 349.642 11 345.5V307.5Z" fill="#B5B4B4"/>
<path fill-rule="evenodd" clip-rule="evenodd" d="M33 60H0V365H33V60ZM16.5 71C12.3579 71 9 74.3579 9 78.5V116.5C9 120.642 12.3579 124 16.5 124C20.6421 124 24 120.642 24 116.5V78.5C24 74.3579 20.6421 71 16.5 71ZM16.5 129C12.3579 129 9 132.358 9 136.5V174.5C9 178.642 12.3579 182 16.5 182C20.6421 182 24 178.642 24 174.5V136.5C24 132.358 20.6421 129 16.5 129ZM9 194.5C9 190.358 12.3579 187 16.5 187C20.6421 187 24 190.358 24 194.5V232.5C24 236.642 20.6421 240 16.5 240C12.3579 240 9 236.642 9 232.5V194.5ZM16.5 245C12.3579 245 9 248.358 9 252.5V290.5C9 294.642 12.3579 298 16.5 298C20.6421 298 24 294.642 24 290.5V252.5C24 248.358 20.6421 245 16.5 245ZM9 310.5C9 306.358 12.3579 303 16.5 303C20.6421 303 24 306.358 24 310.5V348.5C24 352.642 20.6421 356 16.5 356C12.3579 356 9 352.642 9 348.5V310.5Z" fill="#D9D9D9"/>
</svg>
