<svg width="155" height="100" viewBox="0 0 155 100" fill="none" xmlns="http://www.w3.org/2000/svg">
<path d="M69 44.4324L86 36V73.9459L69 88V44.4324Z" fill="#877452"/>
<rect x="11" y="45" width="58" height="43" fill="#B59D70"/>
<path d="M34.5 36.375L86 36L69 45H11L34.5 36.375Z" fill="#5E5E5E"/>
<path d="M34 36H57L40 45H11L34 36Z" fill="#9C8966"/>
<path d="M57.5 36H86L69 45H41L57.5 36Z" fill="#9C8966"/>
<rect x="51" y="69" width="16" height="11" fill="#D9D9D9"/>
<line x1="52" y1="70.75" x2="63" y2="70.75" stroke="black" stroke-width="0.5"/>
<line x1="52" y1="72.75" x2="66" y2="72.75" stroke="black" stroke-width="0.5"/>
<line x1="52" y1="74.75" x2="58" y2="74.75" stroke="black" stroke-width="0.5"/>
<line x1="52" y1="76.75" x2="66" y2="76.75" stroke="black" stroke-width="0.5"/>
<line x1="52" y1="77.75" x2="66" y2="77.75" stroke="black" stroke-width="0.5"/>
<line x1="52" y1="78.75" x2="66" y2="78.75" stroke="black" stroke-width="0.5"/>
<path d="M138 43.4324L155 35V72.9459L138 87V43.4324Z" fill="#877452"/>
<rect x="80" y="44" width="58" height="43" fill="#B59D70"/>
<path d="M103.5 35.375L155 35L138 44H80L103.5 35.375Z" fill="#5E5E5E"/>
<path d="M103 35H126L109 44H80L103 35Z" fill="#9C8966"/>
<path d="M126.5 35H155L138 44H110L126.5 35Z" fill="#9C8966"/>
<rect x="120" y="68" width="16" height="11" fill="#D9D9D9"/>
<line x1="121" y1="69.75" x2="132" y2="69.75" stroke="black" stroke-width="0.5"/>
<line x1="121" y1="71.75" x2="135" y2="71.75" stroke="black" stroke-width="0.5"/>
<line x1="121" y1="73.75" x2="127" y2="73.75" stroke="black" stroke-width="0.5"/>
<line x1="121" y1="75.75" x2="135" y2="75.75" stroke="black" stroke-width="0.5"/>
<line x1="121" y1="76.75" x2="135" y2="76.75" stroke="black" stroke-width="0.5"/>
<line x1="121" y1="77.75" x2="135" y2="77.75" stroke="black" stroke-width="0.5"/>
<path d="M58 55.4324L75 47V84.9459L58 99V55.4324Z" fill="#877452"/>
<rect y="56" width="58" height="43" fill="#B59D70"/>
<path d="M23.5 47.375L75 47L58 56H0L23.5 47.375Z" fill="#5E5E5E"/>
<path d="M23 47H46L29 56H0L23 47Z" fill="#9C8966"/>
<path d="M46.5 47H75L58 56H30L46.5 47Z" fill="#9C8966"/>
<rect x="40" y="80" width="16" height="11" fill="#D9D9D9"/>
<line x1="41" y1="81.75" x2="52" y2="81.75" stroke="black" stroke-width="0.5"/>
<line x1="41" y1="83.75" x2="55" y2="83.75" stroke="black" stroke-width="0.5"/>
<line x1="41" y1="85.75" x2="47" y2="85.75" stroke="black" stroke-width="0.5"/>
<line x1="41" y1="87.75" x2="55" y2="87.75" stroke="black" stroke-width="0.5"/>
<line x1="41" y1="88.75" x2="55" y2="88.75" stroke="black" stroke-width="0.5"/>
<line x1="41" y1="89.75" x2="55" y2="89.75" stroke="black" stroke-width="0.5"/>
<path d="M125 56.4324L142 48V85.9459L125 100V56.4324Z" fill="#877452"/>
<rect x="67" y="57" width="58" height="43" fill="#B59D70"/>
<path d="M90.5 48.375L142 48L125 57H67L90.5 48.375Z" fill="#5E5E5E"/>
<path d="M90 48H113L96 57H67L90 48Z" fill="#9C8966"/>
<path d="M113.5 48H142L125 57H97L113.5 48Z" fill="#9C8966"/>
<rect x="107" y="81" width="16" height="11" fill="#D9D9D9"/>
<line x1="108" y1="82.75" x2="119" y2="82.75" stroke="black" stroke-width="0.5"/>
<line x1="108" y1="84.75" x2="122" y2="84.75" stroke="black" stroke-width="0.5"/>
<line x1="108" y1="86.75" x2="114" y2="86.75" stroke="black" stroke-width="0.5"/>
<line x1="108" y1="88.75" x2="122" y2="88.75" stroke="black" stroke-width="0.5"/>
<line x1="108" y1="89.75" x2="122" y2="89.75" stroke="black" stroke-width="0.5"/>
<line x1="108" y1="90.75" x2="122" y2="90.75" stroke="black" stroke-width="0.5"/>
<path d="M93 8.43243L110 0V37.9459L93 52V8.43243Z" fill="#877452"/>
<rect x="35" y="9" width="58" height="43" fill="#B59D70"/>
<path d="M58.5 0.375L110 0L93 9H35L58.5 0.375Z" fill="#5E5E5E"/>
<path d="M58 0H81L64 9H35L58 0Z" fill="#9C8966"/>
<path d="M81.5 0H110L93 9H65L81.5 0Z" fill="#9C8966"/>
<rect x="75" y="33" width="16" height="11" fill="#D9D9D9"/>
<line x1="76" y1="34.75" x2="87" y2="34.75" stroke="black" stroke-width="0.5"/>
<line x1="76" y1="36.75" x2="90" y2="36.75" stroke="black" stroke-width="0.5"/>
<line x1="76" y1="38.75" x2="82" y2="38.75" stroke="black" stroke-width="0.5"/>
<line x1="76" y1="40.75" x2="90" y2="40.75" stroke="black" stroke-width="0.5"/>
<line x1="76" y1="41.75" x2="90" y2="41.75" stroke="black" stroke-width="0.5"/>
<line x1="76" y1="42.75" x2="90" y2="42.75" stroke="black" stroke-width="0.5"/>
</svg>
