<svg width="50" height="51" viewBox="0 0 50 51" fill="none" xmlns="http://www.w3.org/2000/svg">
<path d="M23.9583 3.04218C25.159 3.04193 26.3229 3.45126 27.253 4.20089C28.1831 4.95051 28.8224 5.99438 29.0625 7.15584H35.4167C37.0743 7.15584 38.664 7.80595 39.8361 8.96314C41.0082 10.1203 41.6667 11.6898 41.6667 13.3263V40.0652C41.6667 41.7017 41.0082 43.2712 39.8361 44.4284C38.664 45.5856 37.0743 46.2357 35.4167 46.2357H12.5C10.8424 46.2357 9.25269 45.5856 8.08058 44.4284C6.90848 43.2712 6.25 41.7017 6.25 40.0652V13.3263C6.25 11.6898 6.90848 10.1203 8.08058 8.96314C9.25269 7.80595 10.8424 7.15584 12.5 7.15584H18.8542C19.0943 5.99438 19.7335 4.95051 20.6636 4.20089C21.5938 3.45126 22.7577 3.04193 23.9583 3.04218ZM26.8958 7.15584C26.6816 6.55561 26.284 6.0358 25.7578 5.66811C25.2317 5.30041 24.6029 5.10295 23.9583 5.10295C23.3137 5.10295 22.685 5.30041 22.1589 5.66811C21.6327 6.0358 21.2351 6.55561 21.0208 7.15584H26.8958ZM12.5 9.21267C11.3949 9.21267 10.3351 9.64608 9.55372 10.4175C8.77232 11.189 8.33333 12.2353 8.33333 13.3263V40.0652C8.33333 41.1562 8.77232 42.2025 9.55372 42.974C10.3351 43.7454 11.3949 44.1788 12.5 44.1788H35.4167C36.5217 44.1788 37.5815 43.7454 38.3629 42.974C39.1443 42.2025 39.5833 41.1562 39.5833 40.0652V13.3263C39.5833 12.2353 39.1443 11.189 38.3629 10.4175C37.5815 9.64608 36.5217 9.21267 35.4167 9.21267H33.3333V15.3832H14.5833V9.21267H12.5ZM16.6667 9.21267V13.3263H31.25V9.21267H16.6667Z" fill="#F8F8F8"/>
</svg>
