<svg width="50" height="51" viewBox="0 0 50 51" fill="none" xmlns="http://www.w3.org/2000/svg">
<path fill-rule="evenodd" clip-rule="evenodd" d="M34.7292 27.972C37.5834 29.8848 39.5834 32.4764 39.5834 35.9319V42.1024H47.9167V35.9319C47.9167 31.448 40.4792 28.7947 34.7292 27.972Z" fill="#F8F8F8"/>
<path d="M18.75 25.6478C23.3524 25.6478 27.0834 21.9643 27.0834 17.4204C27.0834 12.8766 23.3524 9.19309 18.75 9.19309C14.1476 9.19309 10.4167 12.8766 10.4167 17.4204C10.4167 21.9643 14.1476 25.6478 18.75 25.6478Z" fill="#F8F8F8"/>
<path fill-rule="evenodd" clip-rule="evenodd" d="M31.25 25.6478C35.8541 25.6478 39.5833 21.966 39.5833 17.4204C39.5833 12.8748 35.8541 9.19309 31.25 9.19309C30.2708 9.19309 29.3541 9.39878 28.4791 9.68673C30.2719 11.8756 31.2499 14.6054 31.2499 17.4204C31.2499 20.2354 30.2719 22.9652 28.4791 25.1541C29.3541 25.4421 30.2708 25.6478 31.25 25.6478ZM18.75 27.7046C13.1875 27.7046 2.08331 30.4607 2.08331 35.9319V42.1024H35.4166V35.9319C35.4166 30.4607 24.3125 27.7046 18.75 27.7046Z" fill="#F8F8F8"/>
</svg>
