<svg width="50" height="52" viewBox="0 0 50 52" fill="none" xmlns="http://www.w3.org/2000/svg">
<path d="M25 33.5834C23.0661 33.5834 21.2114 32.7844 19.844 31.3623C18.4765 29.9401 17.7083 28.0113 17.7083 26C17.7083 23.9888 18.4765 22.06 19.844 20.6378C21.2114 19.2157 23.0661 18.4167 25 18.4167C26.9338 18.4167 28.7885 19.2157 30.156 20.6378C31.5234 22.06 32.2916 23.9888 32.2916 26C32.2916 28.0113 31.5234 29.9401 30.156 31.3623C28.7885 32.7844 26.9338 33.5834 25 33.5834ZM40.4791 28.1017C40.5625 27.4084 40.625 26.715 40.625 26C40.625 25.285 40.5625 24.57 40.4791 23.8334L44.875 20.3017C45.2708 19.9767 45.375 19.3917 45.125 18.915L40.9583 11.4184C40.7083 10.9417 40.1458 10.7467 39.6875 10.9417L34.5 13.1084C33.4166 12.2634 32.2916 11.5267 30.9791 10.985L30.2083 5.24338C30.166 4.98818 30.0382 4.7568 29.8475 4.59024C29.6568 4.42368 29.4156 4.33268 29.1666 4.33338H20.8333C20.3125 4.33338 19.875 4.72338 19.7916 5.24338L19.0208 10.985C17.7083 11.5267 16.5833 12.2634 15.5 13.1084L10.3125 10.9417C9.85414 10.7467 9.29164 10.9417 9.04164 11.4184L4.87497 18.915C4.60414 19.3917 4.72914 19.9767 5.12497 20.3017L9.5208 23.8334C9.43747 24.57 9.37497 25.285 9.37497 26C9.37497 26.715 9.43747 27.4084 9.5208 28.1017L5.12497 31.6984C4.72914 32.0234 4.60414 32.6084 4.87497 33.0851L9.04164 40.5817C9.29164 41.0584 9.85414 41.2317 10.3125 41.0584L15.5 38.8701C16.5833 39.7367 17.7083 40.4734 19.0208 41.015L19.7916 46.7567C19.875 47.2767 20.3125 47.6667 20.8333 47.6667H29.1666C29.6875 47.6667 30.125 47.2767 30.2083 46.7567L30.9791 41.015C32.2916 40.4517 33.4166 39.7367 34.5 38.8701L39.6875 41.0584C40.1458 41.2317 40.7083 41.0584 40.9583 40.5817L45.125 33.0851C45.375 32.6084 45.2708 32.0234 44.875 31.6984L40.4791 28.1017Z" fill="#F8F8F8"/>
</svg>
