<svg width="173" height="161" viewBox="0 0 173 161" fill="none" xmlns="http://www.w3.org/2000/svg">
<path opacity="0.25" d="M77.5483 91.7533L46 110L14.4517 91.7533C15.0993 90.632 16.023 89.6951 17.135 89.0316L42.1666 74.58C44.5433 73.2383 47.4566 73.2383 49.8333 74.58L74.865 89.0316C75.9766 89.6948 76.9005 90.634 77.5483 91.7533Z" fill="#222222"/>
<path opacity="0.5" d="M46.0001 110V146.417C44.7915 146.415 43.5989 146.14 42.5118 145.612L17.2501 131.007C16.0865 130.334 15.1201 129.367 14.4474 128.203C13.7747 127.039 13.4193 125.719 13.4167 124.375V95.625C13.4231 94.2669 13.7796 92.9334 14.4517 91.7533L46.0001 110Z" fill="#222222"/>
<path d="M78.5833 95.625V124.375C78.5808 125.719 78.2254 127.039 77.5527 128.203C76.88 129.367 75.9135 130.334 74.75 131.007L49.3733 145.65C48.3192 146.148 47.1653 146.409 46 146.417V110L77.5483 91.7533C78.2192 92.934 78.5757 94.268 78.5833 95.625Z" fill="#222222"/>
<path opacity="0.25" d="M158.548 96.7533L127 115L95.4517 96.7533C96.0993 95.632 97.023 94.6951 98.135 94.0316L123.167 79.58C125.543 78.2383 128.457 78.2383 130.833 79.58L155.865 94.0316C156.977 94.6948 157.9 95.634 158.548 96.7533Z" fill="#222222"/>
<path opacity="0.5" d="M127 115V151.417C125.791 151.415 124.599 151.14 123.512 150.612L98.2501 136.007C97.0865 135.334 96.1201 134.367 95.4474 133.203C94.7747 132.039 94.4193 130.719 94.4167 129.375V100.625C94.4231 99.2669 94.7796 97.9334 95.4517 96.7533L127 115Z" fill="#222222"/>
<path d="M159.583 100.625V129.375C159.581 130.719 159.225 132.039 158.553 133.203C157.88 134.367 156.914 135.334 155.75 136.007L130.373 150.65C129.319 151.148 128.165 151.409 127 151.417V115L158.548 96.7533C159.219 97.934 159.576 99.268 159.583 100.625Z" fill="#222222"/>
<path opacity="0.25" d="M123.548 27.7533L92 46L60.4517 27.7533C61.0993 26.632 62.023 25.6951 63.135 25.0316L88.1666 10.58C90.5433 9.23831 93.4566 9.23831 95.8333 10.58L120.865 25.0316C121.977 25.6948 122.9 26.634 123.548 27.7533Z" fill="#222222"/>
<path opacity="0.5" d="M92.0001 46V82.4166C90.7915 82.4148 89.5989 82.1396 88.5118 81.6116L63.2501 67.0066C62.0865 66.3335 61.1201 65.3667 60.4474 64.2029C59.7747 63.0392 59.4193 61.7192 59.4167 60.375V31.625C59.4231 30.2669 59.7796 28.9334 60.4517 27.7533L92.0001 46Z" fill="#222222"/>
<path d="M124.583 31.625V60.375C124.581 61.7192 124.225 63.0392 123.553 64.2029C122.88 65.3667 121.914 66.3335 120.75 67.0066L95.3733 81.6499C94.3192 82.1483 93.1653 82.4089 92 82.4166V46L123.548 27.7533C124.219 28.934 124.576 30.268 124.583 31.625Z" fill="#222222"/>
</svg>
